<?xml version="1.0" standalone="no"?>
<!DOCTYPE svg PUBLIC "-//W3C//DTD SVG 20010904//EN"
 "http://www.w3.org/TR/2001/REC-SVG-20010904/DTD/svg10.dtd">
<svg version="1.0" xmlns="http://www.w3.org/2000/svg"
 width="512.000000pt" height="512.000000pt" viewBox="0 0 512.000000 512.000000"
 preserveAspectRatio="xMidYMid meet">
<metadata>
Created by potrace 1.14, written by Peter Selinger 2001-2017
</metadata>
<g transform="translate(0.000000,512.000000) scale(0.100000,-0.100000)"
fill="#000000" stroke="none">
<path d="M3827 3724 c-1 -1 -36 -5 -77 -8 -63 -5 -161 -17 -180 -21 -3 -1 -25
-5 -50 -9 -151 -26 -356 -105 -432 -167 -47 -37 -49 -24 -5 32 37 49 106 89
152 89 26 0 34 5 37 23 2 12 3 27 1 33 -2 6 -77 9 -196 7 -105 -1 -243 -2
-305 -2 l-113 -1 3 -32 3 -33 61 2 62 3 10 -41 c21 -83 8 -142 -137 -624 -78
-258 -144 -481 -147 -494 -3 -13 -11 -39 -19 -57 -8 -19 -12 -34 -10 -34 2 0
-9 -38 -25 -84 l-28 -85 54 -11 c29 -6 56 -11 59 -11 2 0 18 -4 34 -9 34 -10
34 -11 50 85 6 32 15 63 20 68 14 14 41 0 41 -22 0 -27 37 -145 65 -206 13
-28 45 -78 70 -110 123 -159 285 -233 505 -233 58 0 120 2 138 5 l33 5 -90 93
c-167 172 -297 379 -336 532 -23 91 -35 342 -21 430 2 15 7 48 11 73 43 296
209 515 450 593 83 28 154 38 280 42 104 2 229 -5 299 -19 42 -9 161 -48 174
-58 6 -6 12 -8 12 -4 0 10 96 -52 131 -86 85 -81 134 -184 138 -285 1 -19 7
-23 34 -23 33 0 34 0 34 48 0 26 3 137 8 247 4 110 9 224 10 253 1 29 -3 56
-9 61 -6 5 -41 12 -78 15 -37 4 -77 9 -90 11 -78 13 -621 29 -631 19z"/>
<path d="M1721 3698 c-5 -13 -57 -147 -115 -298 -58 -151 -110 -284 -115 -295
-6 -11 -39 -96 -75 -190 -36 -93 -72 -187 -80 -207 l-16 -36 89 -30 88 -30 93
229 c51 126 94 228 95 227 2 -2 60 -145 131 -318 70 -173 133 -331 141 -350
11 -26 43 -55 125 -113 60 -44 111 -77 113 -75 2 1 5 12 7 23 4 28 16 34 49
25 43 -12 129 -22 129 -15 0 3 -16 45 -36 93 -20 48 -65 159 -101 247 -36 88
-71 174 -78 190 -14 33 -135 329 -140 345 -2 6 -7 19 -40 100 -13 30 -62 152
-110 270 -48 118 -92 218 -98 222 -23 14 -48 8 -56 -14z"/>
<path d="M133 3702 c-18 -3 -23 -10 -23 -33 0 -16 6 -29 13 -30 6 0 41 0 77 1
l65 1 69 -168 c91 -223 96 -234 111 -263 9 -17 81 -63 226 -142 197 -110 229
-125 229 -114 0 4 -83 392 -96 451 -3 11 -7 31 -10 45 -3 14 -7 32 -9 40 -2 8
-7 31 -10 50 -3 19 -10 49 -14 67 l-9 32 53 -2 c73 -4 92 5 91 39 l-2 27 -369
1 c-204 1 -380 0 -392 -2z"/>
<path d="M151 3250 c165 -426 372 -789 594 -1044 43 -49 64 -81 57 -85 -8 -4
21 -106 89 -314 89 -271 104 -309 125 -317 37 -14 48 -5 84 73 19 40 53 112
77 161 24 49 43 90 43 92 0 2 -19 13 -42 25 -42 21 -102 64 -143 102 -11 11 9
3 45 -16 76 -41 140 -64 230 -82 61 -12 63 -13 32 -20 -18 -4 -35 -11 -38 -16
-12 -20 116 -79 206 -95 54 -9 229 -6 289 6 75 14 75 12 1 -16 -85 -33 -227
-70 -264 -68 l-29 1 24 -18 c35 -26 145 -66 219 -79 108 -19 249 -3 363 40 28
11 54 20 57 20 25 0 -227 -133 -284 -149 -21 -6 49 -10 209 -11 l240 -1 -38
-20 c-22 -11 -37 -23 -34 -25 2 -3 49 -8 104 -11 186 -11 354 38 513 148 54
37 58 38 153 40 97 3 97 3 97 29 0 14 -4 30 -8 36 -4 6 -53 15 -111 19 -57 3
-111 8 -120 10 -9 1 -45 6 -81 10 -36 4 -73 9 -83 11 -10 2 -54 8 -98 15 -43
6 -79 16 -79 21 0 5 4 7 8 4 4 -2 35 -7 67 -11 33 -4 71 -8 85 -10 86 -14 453
-24 571 -15 38 3 69 2 69 -1 0 -4 -34 -19 -75 -34 -41 -15 -75 -29 -75 -31 0
-2 36 -22 80 -44 83 -42 228 -94 290 -105 19 -3 55 -11 80 -17 69 -16 361 -18
465 -2 158 23 352 78 476 133 l46 21 0 264 0 264 60 50 c58 48 218 208 282
282 17 19 31 43 31 53 0 16 -4 18 -30 21 -6 1 -56 -44 -113 -99 -130 -128
-187 -178 -193 -172 -10 9 -12 152 -3 187 5 20 22 49 38 64 26 25 38 29 93 30
l63 1 0 30 0 30 -427 1 -427 1 1 -32 c1 -32 1 -32 52 -30 102 3 190 -37 217
-98 11 -26 21 -399 11 -438 -5 -20 -182 -109 -311 -156 -99 -36 -251 -78 -315
-89 -21 -3 -48 -8 -60 -10 -93 -20 -364 -23 -491 -5 -64 9 -90 18 -130 46 -57
39 -211 162 -265 211 -108 99 -190 130 -345 131 -135 1 -143 -2 -140 -66 1
-28 1 -51 0 -51 -1 0 -18 26 -38 59 -104 168 -291 289 -504 326 -36 6 -35 8
-35 -78 l1 -48 -36 73 c-71 142 -202 239 -393 293 -176 49 -324 137 -380 224
-15 22 -16 18 -15 -63 1 -47 -2 -86 -6 -86 -4 0 -19 39 -34 88 l-27 87 -76 45
c-198 114 -491 318 -546 379 -35 39 -34 22 5 -79z m659 -730 c18 -18 146 -124
200 -166 189 -146 498 -320 722 -409 54 -21 96 -40 94 -42 -6 -6 -233 86 -353
143 -191 91 -405 228 -533 339 -52 45 -200 192 -165 164 16 -13 32 -26 35 -29z
m3550 -564 c0 -2 -17 -15 -38 -28 l-38 -25 1 -102 1 -102 -61 -29 c-139 -67
-330 -62 -568 16 -43 15 -76 28 -74 30 2 2 30 9 63 15 222 40 539 138 673 209
40 21 41 22 41 16z m-1943 -212 c-3 -3 -12 -4 -19 -1 -8 3 -5 6 6 6 11 1 17
-2 13 -5z m56 -11 c-7 -2 -21 -2 -30 0 -10 3 -4 5 12 5 17 0 24 -2 18 -5z m62
-13 c-6 -10 -45 -1 -45 10 0 4 11 5 25 2 14 -2 23 -8 20 -12z"/>
</g>
</svg>
